<svg width="1334" height="774" viewBox="0 0 1334 774" fill="none" xmlns="http://www.w3.org/2000/svg">
<g clip-path="url(#clip0_109_2)">
<path d="M1333.33 753.49C1284.83 765.82 1254.83 754.03 1227.92 713.62L1036.5 448.79L1008.83 412.12L785.29 714.5C759.75 750.88 732.96 766.7 685.29 753.83L971.54 369.58L705.04 22.4898C750.87 13.5798 782.54 18.1098 810.66 59.1598L1009.2 327.29L1209.2 60.6198C1234.82 24.2398 1262.37 10.4198 1308.37 23.8198L1205.04 160.82L1065.04 343.11C1048.37 363.94 1050.66 378.2 1066 398.31L1333.33 753.49ZM0.34 363.16L23.75 247.99C87.5 20.0698 348.75 -74.6402 528.92 66.1898C634.21 149.02 660.38 266.19 655.17 397.44H61.67C52.76 633.69 222.8 776.27 439.58 703.53C515.62 677.99 560.41 618.44 582.83 543.95C594.21 506.62 613.03 500.78 648.12 511.45C630.21 604.62 589.79 682.45 504.37 731.16C376.75 804.07 194.57 780.49 98.75 679.16C41.66 620.36 18.08 545.87 7.5 466.2C5.83 453.03 2.5 440.49 0 427.87C0.22 406.31 0.34 384.76 0.34 363.2V363.16ZM62.75 347.33H599.08C595.58 176.5 489.21 55.1598 343.83 54.1298C184.25 52.8798 69.66 171.33 62.74 347.33H62.75Z" fill="white"/>
</g>
<defs>
<clipPath id="clip0_109_2">
<rect width="1333.33" height="773.55" fill="white"/>
</clipPath>
</defs>
</svg>
