<svg width="193" height="192" viewBox="0 0 193 192" fill="none" xmlns="http://www.w3.org/2000/svg">
<mask id="mask0_25_6" style="mask-type:luminance" maskUnits="userSpaceOnUse" x="32" y="8" width="129" height="176">
<path d="M143.8 47.4C143.4 45.2 141.4 43.8 139.2 44.1C138.4 44.2 137.6 44.6 137 45.2L116.2 66L99.9 34.9C98.9 32.9 96.5 32.2 94.5 33.2C93.8 33.6 93.2 34.2 92.8 34.9L83.9 51.9L61.5 10.1C60.5 8.20004 58 7.40004 56.1 8.50004C55 9.10004 54.2 10.2 54 11.4L32.3 150L90.2 182.5C93.8 184.5 98.3 184.5 101.9 182.5L160.3 150L143.8 47.4Z" fill="white"/>
</mask>
<g mask="url(#mask0_25_6)">
<path d="M32.3 150L54 11.3998C54.3 9.19979 56.4 7.69979 58.6 8.09979C59.8 8.29979 60.9 9.09979 61.5 10.1998L83.9 51.9998L92.8 34.9998C93.8 32.9998 96.2 32.2998 98.2 33.2998C98.9 33.6998 99.5 34.2998 99.9 34.9998L160.3 150H32.3Z" fill="#FFA000"/>
<path opacity="0.12" d="M106.3 9L0.300049 0V192L32.3001 150L106.3 9Z" fill="url(#paint0_linear_25_6)"/>
<path d="M107.2 95.9999L83.9 51.8999L32.3 150L107.2 95.9999Z" fill="#F57C00"/>
<path opacity="0.2" d="M0.300049 0H192.3V192H0.300049V0Z" fill="url(#paint1_linear_25_6)"/>
<path d="M160.3 150L143.7 47.2998C143.3 45.0998 141.3 43.6998 139.1 43.9998C138.3 44.0998 137.5 44.4998 136.9 45.0998L32.3 150L90.2 182.5C93.8 184.5 98.3 184.5 101.9 182.5L160.3 150Z" fill="#FFCA28"/>
<path d="M143.8 47.4C143.4 45.2 141.4 43.8 139.2 44.1C138.4 44.2 137.6 44.6 137 45.2L116.2 66L99.8999 34.9C98.8999 32.9 96.5 32.2 94.5 33.2C93.8 33.6 93.2 34.2 92.8 34.9L83.9 51.9L61.5 10.1C60.5 8.20004 58 7.40004 56.1 8.50004C55 9.10004 54.2 10.2 54 11.4L32.3 150H32.2L32.3 150.1L32.9 150.4L116.2 67L137 46.2C138.6 44.6 141.1 44.6 142.7 46.2C143.3 46.8 143.7 47.5 143.8 48.4L160.2 150.1L160.4 150L143.8 47.4ZM32.5 149.8L54 12.4C54.3 10.2 56.4 8.70004 58.6 9.10004C59.8 9.30004 60.9 10.1 61.5 11.2L83.9 53L92.8 36C93.8 34 96.2 33.3 98.2 34.3C98.9 34.7 99.4999 35.3 99.8999 36L115.9 66.4L32.5 149.8Z" fill="white" fill-opacity="0.2"/>
<path opacity="0.2" d="M101.9 181.5C98.3 183.5 93.8 183.5 90.2 181.5L32.4 149.1L32.3 150L90.2 182.5C93.8 184.5 98.3 184.5 101.9 182.5L160.3 150L160.2 149.1L101.9 181.5Z" fill="#A52714"/>
<path d="M143.8 47.4C143.4 45.2 141.4 43.8 139.2 44.1C138.4 44.2 137.6 44.6 137 45.2L116.2 66L99.9 34.9C98.9 32.9 96.5 32.2 94.5 33.2C93.8 33.6 93.2 34.2 92.8 34.9L83.9 51.9L61.5 10.1C60.5 8.20004 58 7.40004 56.1 8.50004C55 9.10004 54.2 10.2 54 11.4L32.3 150L90.2 182.5C93.8 184.5 98.3 184.5 101.9 182.5L160.3 150L143.8 47.4Z" fill="url(#paint2_linear_25_6)"/>
</g>
<defs>
<linearGradient id="paint0_linear_25_6" x1="57.242" y1="102.555" x2="49.242" y2="98.3752" gradientUnits="userSpaceOnUse">
<stop stop-color="#A52714"/>
<stop offset="0.4" stop-color="#A52714" stop-opacity="0.5"/>
<stop offset="0.8" stop-color="#A52714" stop-opacity="0"/>
</linearGradient>
<linearGradient id="paint1_linear_25_6" x1="91.241" y1="90.9169" x2="87.661" y2="87.3369" gradientUnits="userSpaceOnUse">
<stop stop-color="#A52714" stop-opacity="0.8"/>
<stop offset="0.5" stop-color="#A52714" stop-opacity="0.21"/>
<stop offset="1" stop-color="#A52714" stop-opacity="0"/>
</linearGradient>
<linearGradient id="paint2_linear_25_6" x1="28.8538" y1="38.9726" x2="162.541" y2="172.66" gradientUnits="userSpaceOnUse">
<stop stop-color="white" stop-opacity="0.1"/>
<stop offset="1" stop-color="white" stop-opacity="0"/>
</linearGradient>
</defs>
</svg>
