<svg width="800" height="800" viewBox="0 0 800 800" fill="none" xmlns="http://www.w3.org/2000/svg">
<path d="M682.67 156.822L631.167 733.797L399.654 797.979L168.78 733.886L117.33 156.822H682.67Z" fill="#E44D26"/>
<path d="M400 748.92L587.074 697.057L631.085 204.004H400V748.92Z" fill="#F16529"/>
<path d="M299.878 345.556H400V274.781H222.531L224.224 293.769L241.62 488.805H400V418.03H306.347L299.878 345.556ZM315.829 524.193H244.782L254.697 635.32L399.674 675.564L400 675.475V601.839L399.69 601.921L320.869 580.638L315.829 524.193Z" fill="#EBEBEB"/>
<path d="M169.928 0H205.895V35.5346H238.797V0H274.766V107.608H238.799V71.5745H205.897V107.608H169.93L169.928 0ZM322.061 35.6853H290.402V0H389.713V35.6853H358.034V107.608H322.068V35.6853H322.061ZM405.474 0H442.976L466.045 37.8105L489.093 0H526.611V107.608H490.79V54.2715L466.045 92.5319H465.425L440.665 54.2715V107.608H405.474V0ZM544.51 0H580.488V72.0399H631.067V107.608H544.507V0H544.51Z" fill="white"/>
<path d="M399.756 488.805H486.907L478.69 580.594L399.754 601.899V675.53L544.846 635.32L545.91 623.362L562.544 437.035L564.27 418.03H399.756V488.805ZM399.756 345.383V345.556H570.71L572.128 329.649L575.355 293.769L577.046 274.781H399.756V345.383Z" fill="white"/>
</svg>
