<svg width="512" height="177" viewBox="0 0 512 177" fill="none" xmlns="http://www.w3.org/2000/svg">
<g clip-path="url(#clip0_0_3)">
<path d="M74.9967 9.4049H109.45V124.325C109.704 134.017 107.251 143.587 102.368 151.962C97.6198 159.753 90.7553 166.035 82.5743 170.074C73.4274 174.499 63.3608 176.69 53.2023 176.466C43.9306 176.597 34.7339 174.788 26.2028 171.154C18.3771 167.8 11.7226 162.199 7.08184 155.061C2.36061 147.873 0 138.808 0 127.866H34.6833C34.7895 134.399 36.6839 139.498 40.3665 143.11C44.2905 146.838 49.5666 148.801 54.9728 148.545C68.2158 148.545 74.8905 140.472 74.9967 124.325V9.4049ZM185.898 176.625C173.399 176.625 162.605 173.957 153.517 168.622C144.483 163.355 137.171 155.582 132.466 146.244C127.349 135.884 124.81 124.441 125.065 112.888C124.8 101.284 127.339 89.7871 132.466 79.3735C137.176 70.0389 144.487 62.2668 153.517 56.9949C163.393 51.4612 174.581 48.6965 185.898 48.9924C197.221 48.6985 208.414 51.463 218.298 56.9949C227.323 62.267 234.628 70.0395 239.331 79.3735C244.463 89.7858 247.008 101.283 246.749 112.888C246.999 124.442 244.454 135.885 239.331 146.244C234.633 155.581 227.326 163.355 218.298 168.622C209.198 173.969 198.398 176.637 185.898 176.625ZM225.096 9.4049V27.9947H146.718V9.4049H225.096ZM186.146 150.068C193.857 150.384 201.116 146.496 205.131 139.942L205.426 139.445C209.794 132.363 211.977 123.434 211.977 112.658C211.977 102.241 209.92 93.5337 205.806 86.5358L205.373 85.818C201.425 78.9641 193.996 74.871 186.093 75.1952C178.325 74.8656 171 78.7525 166.911 85.3318L166.618 85.818C162.215 92.8998 160.014 101.847 160.014 112.658C160.014 123.109 162.071 131.801 166.185 138.734L166.618 139.445C170.541 146.137 177.751 150.187 185.477 150.084L186.146 150.068ZM329.837 50.6035V76.3637H306.573V136.311C306.573 141.033 307.647 144.22 309.795 145.872C312.073 147.516 314.809 148.391 317.609 148.382L318.169 148.368C319.785 148.37 321.397 148.222 322.985 147.926L326.685 147.253L331.997 172.765L330.675 173.15C329.099 173.594 327.152 174.097 324.756 174.642C321.438 175.353 318.067 175.783 314.678 175.929L313.407 175.97C300.955 176.525 290.963 173.833 283.433 167.896C276.074 162.094 272.361 153.316 272.295 141.563L272.297 76.3637H255.389V50.6035H272.297V20.9837H306.573V50.6035H329.837ZM382.419 176.554C370.616 176.554 360.826 173.468 353.047 167.295C345.269 161.122 341.38 151.921 341.38 139.693C341.38 130.475 343.552 123.234 347.895 117.97C352.403 112.592 358.328 108.587 364.998 106.408C372.357 103.91 379.989 102.305 387.731 101.628C395.469 101.014 403.159 99.8845 410.747 98.2466C415.374 97.0663 417.681 94.4932 417.669 90.5274V90.0317C417.928 85.5724 416.174 81.2319 412.889 78.205C409.679 75.4313 405.158 74.0385 399.327 74.0267C394.114 73.7545 388.95 75.1633 384.597 78.0456C381.095 80.5316 378.542 84.1337 377.356 88.2612L345.647 85.694C347.761 74.7978 354.076 65.17 363.228 58.8893C372.599 52.3032 384.686 49.0042 399.487 48.9924C408.256 48.9235 416.97 50.3977 425.229 53.3477C432.83 55.9612 439.542 60.6609 444.598 66.9095C449.508 73.0589 451.963 81.0377 451.963 90.8461V174.217H419.457V157.079H418.501C415.391 162.918 410.721 167.778 405.01 171.119C399.026 174.742 391.496 176.554 382.419 176.554ZM392.228 152.883C399.011 153.147 405.638 150.803 410.747 146.332C415.287 142.372 417.914 136.671 417.989 130.666L417.988 116.925C416.059 118.069 413.953 118.883 411.756 119.333C408.923 120.023 405.931 120.625 402.727 121.103L399.643 121.577C397.667 121.888 395.845 122.183 394.158 122.431C388.993 122.993 384.027 124.731 379.64 127.512C375.998 129.962 373.909 134.142 374.134 138.525C373.914 142.703 375.835 146.705 379.233 149.147C382.859 151.586 387.125 152.887 391.486 152.893L392.228 152.883ZM494.018 34.6706L493.41 34.6694C488.556 34.7487 483.867 32.91 480.361 29.5527C476.846 26.4489 474.85 21.9727 474.891 17.2835C474.851 12.6046 476.848 8.13964 480.361 5.04957C487.785 -1.68319 499.105 -1.68319 506.529 5.04957C510.042 8.13964 512.039 12.6046 511.999 17.2835C512.038 21.7851 510.2 26.0904 506.943 29.1738L506.529 29.5527C503.148 32.7805 498.677 34.6038 494.018 34.6706ZM476.254 174.217V50.6035H510.53V174.217H476.254Z" fill="white"/>
</g>
<defs>
<clipPath id="clip0_0_3">
<rect width="512" height="177" fill="white"/>
</clipPath>
</defs>
</svg>
