<svg width="500" height="500" viewBox="0 0 500 500" fill="none" xmlns="http://www.w3.org/2000/svg">
<g clip-path="url(#clip0_32_2)">
<path fill-rule="evenodd" clip-rule="evenodd" d="M270.769 224.56V223.83C270.62 224.075 270.413 224.32 270.283 224.56H270.769Z" fill="#FFFAFA"/>
<path fill-rule="evenodd" clip-rule="evenodd" d="M0 0V500H500V0H0ZM155.519 415.387H81.3363V192.204H155.519V415.387ZM118.427 161.743H117.937C93.0527 161.743 76.9231 144.599 76.9231 123.17C76.9231 101.271 93.5242 84.6132 118.913 84.6132C144.308 84.6132 159.913 101.271 160.399 123.17C160.399 144.599 144.308 161.743 118.427 161.743ZM423.077 415.387H348.875V295.984C348.875 265.993 338.154 245.522 311.298 245.522C290.788 245.522 278.6 259.306 273.231 272.657C271.279 277.426 270.769 284.056 270.769 290.744V415.388H196.553C196.553 415.388 197.547 213.143 196.553 192.206H270.769V223.831C280.63 208.658 298.226 186.966 337.644 186.966C386.476 186.966 423.077 218.856 423.077 287.403V415.387Z" fill="#FFFAFA"/>
</g>
<defs>
<clipPath id="clip0_32_2">
<rect width="500" height="500" rx="90" fill="white"/>
</clipPath>
</defs>
</svg>
